<mxfile host="Electron" agent="Mozilla/5.0 (Macintosh; Intel Mac OS X 10_15_7) AppleWebKit/537.36 (KHTML, like Gecko) draw.io/26.0.4 Chrome/128.0.6613.186 Electron/32.2.5 Safari/537.36" version="26.0.4">
  <diagram id="C5RBs43oDa-KdzZeNtuy" name="Page-1">
    <mxGraphModel dx="1973" dy="1883" grid="1" gridSize="10" guides="1" tooltips="1" connect="1" arrows="1" fold="1" page="1" pageScale="1" pageWidth="827" pageHeight="1169" math="0" shadow="0">
      <root>
        <mxCell id="WIyWlLk6GJQsqaUBKTNV-0" />
        <mxCell id="WIyWlLk6GJQsqaUBKTNV-1" parent="WIyWlLk6GJQsqaUBKTNV-0" />
        <mxCell id="vpzqj6q_tbfEYGP_9CFz-5" value="" style="edgeStyle=orthogonalEdgeStyle;rounded=0;orthogonalLoop=1;jettySize=auto;html=1;" edge="1" parent="WIyWlLk6GJQsqaUBKTNV-1" source="WIyWlLk6GJQsqaUBKTNV-3" target="vpzqj6q_tbfEYGP_9CFz-4">
          <mxGeometry relative="1" as="geometry" />
        </mxCell>
        <mxCell id="WIyWlLk6GJQsqaUBKTNV-3" value="Create routing table" style="rounded=1;whiteSpace=wrap;html=1;fontSize=12;glass=0;strokeWidth=1;shadow=0;" parent="WIyWlLk6GJQsqaUBKTNV-1" vertex="1">
          <mxGeometry x="160" y="80" width="120" height="40" as="geometry" />
        </mxCell>
        <mxCell id="WIyWlLk6GJQsqaUBKTNV-4" value="Yes" style="rounded=0;html=1;jettySize=auto;orthogonalLoop=1;fontSize=11;endArrow=block;endFill=0;endSize=8;strokeWidth=1;shadow=0;labelBackgroundColor=none;edgeStyle=orthogonalEdgeStyle;entryX=0.5;entryY=0;entryDx=0;entryDy=0;" parent="WIyWlLk6GJQsqaUBKTNV-1" source="WIyWlLk6GJQsqaUBKTNV-6" target="WIyWlLk6GJQsqaUBKTNV-11" edge="1">
          <mxGeometry x="-0.3229" y="-8" relative="1" as="geometry">
            <mxPoint as="offset" />
            <mxPoint x="-30" y="690" as="targetPoint" />
          </mxGeometry>
        </mxCell>
        <mxCell id="vpzqj6q_tbfEYGP_9CFz-12" style="edgeStyle=orthogonalEdgeStyle;rounded=0;orthogonalLoop=1;jettySize=auto;html=1;entryX=0.5;entryY=0;entryDx=0;entryDy=0;" edge="1" parent="WIyWlLk6GJQsqaUBKTNV-1" source="WIyWlLk6GJQsqaUBKTNV-6" target="vpzqj6q_tbfEYGP_9CFz-11">
          <mxGeometry relative="1" as="geometry" />
        </mxCell>
        <mxCell id="vpzqj6q_tbfEYGP_9CFz-13" value="No" style="edgeLabel;html=1;align=center;verticalAlign=middle;resizable=0;points=[];" vertex="1" connectable="0" parent="vpzqj6q_tbfEYGP_9CFz-12">
          <mxGeometry x="-0.0488" y="3" relative="1" as="geometry">
            <mxPoint x="-24" y="-5" as="offset" />
          </mxGeometry>
        </mxCell>
        <mxCell id="WIyWlLk6GJQsqaUBKTNV-6" value="Is generated solution better than current accepted solution?" style="rhombus;whiteSpace=wrap;html=1;shadow=0;fontFamily=Helvetica;fontSize=12;align=center;strokeWidth=1;spacing=6;spacingTop=-4;" parent="WIyWlLk6GJQsqaUBKTNV-1" vertex="1">
          <mxGeometry x="142.5" y="520" width="155" height="175.5" as="geometry" />
        </mxCell>
        <mxCell id="vpzqj6q_tbfEYGP_9CFz-24" style="edgeStyle=orthogonalEdgeStyle;rounded=0;orthogonalLoop=1;jettySize=auto;html=1;" edge="1" parent="WIyWlLk6GJQsqaUBKTNV-1" source="WIyWlLk6GJQsqaUBKTNV-11" target="vpzqj6q_tbfEYGP_9CFz-23">
          <mxGeometry relative="1" as="geometry" />
        </mxCell>
        <mxCell id="WIyWlLk6GJQsqaUBKTNV-11" value="Set generated route as current accepted solution" style="rounded=1;whiteSpace=wrap;html=1;fontSize=12;glass=0;strokeWidth=1;shadow=0;" parent="WIyWlLk6GJQsqaUBKTNV-1" vertex="1">
          <mxGeometry x="-20" y="750" width="120" height="60" as="geometry" />
        </mxCell>
        <mxCell id="vpzqj6q_tbfEYGP_9CFz-14" value="" style="edgeStyle=orthogonalEdgeStyle;rounded=0;orthogonalLoop=1;jettySize=auto;html=1;" edge="1" parent="WIyWlLk6GJQsqaUBKTNV-1" source="WIyWlLk6GJQsqaUBKTNV-12" target="WIyWlLk6GJQsqaUBKTNV-6">
          <mxGeometry relative="1" as="geometry" />
        </mxCell>
        <mxCell id="WIyWlLk6GJQsqaUBKTNV-12" value="Generate a random solution &amp;amp; calculate its objective function value" style="rounded=1;whiteSpace=wrap;html=1;fontSize=12;glass=0;strokeWidth=1;shadow=0;" parent="WIyWlLk6GJQsqaUBKTNV-1" vertex="1">
          <mxGeometry x="135" y="420" width="170" height="50" as="geometry" />
        </mxCell>
        <mxCell id="vpzqj6q_tbfEYGP_9CFz-1" value="" style="edgeStyle=orthogonalEdgeStyle;rounded=0;orthogonalLoop=1;jettySize=auto;html=1;" edge="1" parent="WIyWlLk6GJQsqaUBKTNV-1" source="vpzqj6q_tbfEYGP_9CFz-0" target="WIyWlLk6GJQsqaUBKTNV-3">
          <mxGeometry relative="1" as="geometry" />
        </mxCell>
        <mxCell id="vpzqj6q_tbfEYGP_9CFz-0" value="Start" style="ellipse;whiteSpace=wrap;html=1;" vertex="1" parent="WIyWlLk6GJQsqaUBKTNV-1">
          <mxGeometry x="180" y="-10" width="80" height="40" as="geometry" />
        </mxCell>
        <mxCell id="vpzqj6q_tbfEYGP_9CFz-9" value="" style="edgeStyle=orthogonalEdgeStyle;rounded=0;orthogonalLoop=1;jettySize=auto;html=1;" edge="1" parent="WIyWlLk6GJQsqaUBKTNV-1" source="vpzqj6q_tbfEYGP_9CFz-2" target="vpzqj6q_tbfEYGP_9CFz-8">
          <mxGeometry relative="1" as="geometry" />
        </mxCell>
        <mxCell id="vpzqj6q_tbfEYGP_9CFz-2" value="Initialize temperature variables" style="rounded=1;whiteSpace=wrap;html=1;fontSize=12;glass=0;strokeWidth=1;shadow=0;" vertex="1" parent="WIyWlLk6GJQsqaUBKTNV-1">
          <mxGeometry x="160" y="260" width="120" height="40" as="geometry" />
        </mxCell>
        <mxCell id="vpzqj6q_tbfEYGP_9CFz-6" value="" style="edgeStyle=orthogonalEdgeStyle;rounded=0;orthogonalLoop=1;jettySize=auto;html=1;" edge="1" parent="WIyWlLk6GJQsqaUBKTNV-1" source="vpzqj6q_tbfEYGP_9CFz-4" target="vpzqj6q_tbfEYGP_9CFz-2">
          <mxGeometry relative="1" as="geometry" />
        </mxCell>
        <mxCell id="vpzqj6q_tbfEYGP_9CFz-4" value="Create Initial solution, calculate its objective function value &amp;amp; set it as current accepted solution" style="rounded=1;whiteSpace=wrap;html=1;fontSize=12;glass=0;strokeWidth=1;shadow=0;" vertex="1" parent="WIyWlLk6GJQsqaUBKTNV-1">
          <mxGeometry x="130" y="170" width="180" height="50" as="geometry" />
        </mxCell>
        <mxCell id="vpzqj6q_tbfEYGP_9CFz-10" value="" style="edgeStyle=orthogonalEdgeStyle;rounded=0;orthogonalLoop=1;jettySize=auto;html=1;" edge="1" parent="WIyWlLk6GJQsqaUBKTNV-1" source="vpzqj6q_tbfEYGP_9CFz-8" target="WIyWlLk6GJQsqaUBKTNV-12">
          <mxGeometry relative="1" as="geometry" />
        </mxCell>
        <mxCell id="vpzqj6q_tbfEYGP_9CFz-8" value="Start temperature cooling" style="rounded=1;whiteSpace=wrap;html=1;" vertex="1" parent="WIyWlLk6GJQsqaUBKTNV-1">
          <mxGeometry x="165" y="350" width="110" height="40" as="geometry" />
        </mxCell>
        <mxCell id="vpzqj6q_tbfEYGP_9CFz-16" value="" style="edgeStyle=orthogonalEdgeStyle;rounded=0;orthogonalLoop=1;jettySize=auto;html=1;" edge="1" parent="WIyWlLk6GJQsqaUBKTNV-1" source="vpzqj6q_tbfEYGP_9CFz-11" target="vpzqj6q_tbfEYGP_9CFz-15">
          <mxGeometry relative="1" as="geometry" />
        </mxCell>
        <mxCell id="vpzqj6q_tbfEYGP_9CFz-11" value="Compute the probability of accepting a solution using the current temperature &amp;amp; generate random number" style="rounded=1;whiteSpace=wrap;html=1;" vertex="1" parent="WIyWlLk6GJQsqaUBKTNV-1">
          <mxGeometry x="340" y="670" width="160" height="70" as="geometry" />
        </mxCell>
        <mxCell id="vpzqj6q_tbfEYGP_9CFz-17" style="edgeStyle=orthogonalEdgeStyle;rounded=0;orthogonalLoop=1;jettySize=auto;html=1;entryX=1;entryY=0.5;entryDx=0;entryDy=0;" edge="1" parent="WIyWlLk6GJQsqaUBKTNV-1" source="vpzqj6q_tbfEYGP_9CFz-15" target="WIyWlLk6GJQsqaUBKTNV-11">
          <mxGeometry relative="1" as="geometry" />
        </mxCell>
        <mxCell id="vpzqj6q_tbfEYGP_9CFz-18" value="Yes" style="edgeLabel;html=1;align=center;verticalAlign=middle;resizable=0;points=[];" vertex="1" connectable="0" parent="vpzqj6q_tbfEYGP_9CFz-17">
          <mxGeometry x="0.0113" y="-2" relative="1" as="geometry">
            <mxPoint x="14" as="offset" />
          </mxGeometry>
        </mxCell>
        <mxCell id="vpzqj6q_tbfEYGP_9CFz-20" style="edgeStyle=orthogonalEdgeStyle;rounded=0;orthogonalLoop=1;jettySize=auto;html=1;entryX=0.5;entryY=0;entryDx=0;entryDy=0;" edge="1" parent="WIyWlLk6GJQsqaUBKTNV-1" source="vpzqj6q_tbfEYGP_9CFz-15" target="vpzqj6q_tbfEYGP_9CFz-19">
          <mxGeometry relative="1" as="geometry" />
        </mxCell>
        <mxCell id="vpzqj6q_tbfEYGP_9CFz-22" value="No" style="edgeLabel;html=1;align=center;verticalAlign=middle;resizable=0;points=[];" vertex="1" connectable="0" parent="vpzqj6q_tbfEYGP_9CFz-20">
          <mxGeometry x="-0.0998" relative="1" as="geometry">
            <mxPoint x="10" y="4" as="offset" />
          </mxGeometry>
        </mxCell>
        <mxCell id="vpzqj6q_tbfEYGP_9CFz-15" value="Is the random&amp;nbsp;&lt;div&gt;number less&lt;span style=&quot;background-color: transparent; color: light-dark(rgb(0, 0, 0), rgb(255, 255, 255));&quot;&gt;&amp;nbsp;than&amp;nbsp;&lt;/span&gt;&lt;/div&gt;&lt;div&gt;&lt;span style=&quot;background-color: transparent; color: light-dark(rgb(0, 0, 0), rgb(255, 255, 255));&quot;&gt;the&amp;nbsp;&lt;/span&gt;&lt;span style=&quot;background-color: transparent; color: light-dark(rgb(0, 0, 0), rgb(255, 255, 255));&quot;&gt;generated&amp;nbsp;&lt;/span&gt;&lt;div&gt;probability?&lt;/div&gt;&lt;/div&gt;" style="rhombus;whiteSpace=wrap;html=1;" vertex="1" parent="WIyWlLk6GJQsqaUBKTNV-1">
          <mxGeometry x="348.75" y="800" width="142.5" height="140" as="geometry" />
        </mxCell>
        <mxCell id="vpzqj6q_tbfEYGP_9CFz-25" style="edgeStyle=orthogonalEdgeStyle;rounded=0;orthogonalLoop=1;jettySize=auto;html=1;entryX=0.5;entryY=0;entryDx=0;entryDy=0;" edge="1" parent="WIyWlLk6GJQsqaUBKTNV-1" source="vpzqj6q_tbfEYGP_9CFz-19" target="vpzqj6q_tbfEYGP_9CFz-23">
          <mxGeometry relative="1" as="geometry">
            <mxPoint x="140" y="970" as="targetPoint" />
            <Array as="points">
              <mxPoint x="40" y="1040" />
            </Array>
          </mxGeometry>
        </mxCell>
        <mxCell id="vpzqj6q_tbfEYGP_9CFz-19" value="Reject the solution" style="rounded=1;whiteSpace=wrap;html=1;" vertex="1" parent="WIyWlLk6GJQsqaUBKTNV-1">
          <mxGeometry x="365" y="1020" width="110" height="40" as="geometry" />
        </mxCell>
        <mxCell id="vpzqj6q_tbfEYGP_9CFz-27" style="edgeStyle=orthogonalEdgeStyle;rounded=0;orthogonalLoop=1;jettySize=auto;html=1;entryX=0.5;entryY=0;entryDx=0;entryDy=0;" edge="1" parent="WIyWlLk6GJQsqaUBKTNV-1" source="vpzqj6q_tbfEYGP_9CFz-23" target="vpzqj6q_tbfEYGP_9CFz-26">
          <mxGeometry relative="1" as="geometry" />
        </mxCell>
        <mxCell id="vpzqj6q_tbfEYGP_9CFz-28" value="No" style="edgeLabel;html=1;align=center;verticalAlign=middle;resizable=0;points=[];" vertex="1" connectable="0" parent="vpzqj6q_tbfEYGP_9CFz-27">
          <mxGeometry x="0.0356" y="4" relative="1" as="geometry">
            <mxPoint x="11" y="31" as="offset" />
          </mxGeometry>
        </mxCell>
        <mxCell id="vpzqj6q_tbfEYGP_9CFz-30" style="edgeStyle=orthogonalEdgeStyle;rounded=0;orthogonalLoop=1;jettySize=auto;html=1;entryX=1;entryY=0.5;entryDx=0;entryDy=0;" edge="1" parent="WIyWlLk6GJQsqaUBKTNV-1" source="vpzqj6q_tbfEYGP_9CFz-23" target="vpzqj6q_tbfEYGP_9CFz-29">
          <mxGeometry relative="1" as="geometry" />
        </mxCell>
        <mxCell id="vpzqj6q_tbfEYGP_9CFz-31" value="Yes" style="edgeLabel;html=1;align=center;verticalAlign=middle;resizable=0;points=[];" vertex="1" connectable="0" parent="vpzqj6q_tbfEYGP_9CFz-30">
          <mxGeometry x="0.1703" relative="1" as="geometry">
            <mxPoint x="10" y="15" as="offset" />
          </mxGeometry>
        </mxCell>
        <mxCell id="vpzqj6q_tbfEYGP_9CFz-23" value="Is there&amp;nbsp;&lt;div&gt;a significant&amp;nbsp;&lt;/div&gt;&lt;div&gt;performance improvement with&amp;nbsp;&lt;span style=&quot;background-color: transparent; color: light-dark(rgb(0, 0, 0), rgb(255, 255, 255));&quot;&gt;the -nth&amp;nbsp;&lt;/span&gt;&lt;/div&gt;&lt;div&gt;&lt;span style=&quot;background-color: transparent; color: light-dark(rgb(0, 0, 0), rgb(255, 255, 255));&quot;&gt;solution?&lt;/span&gt;&lt;/div&gt;" style="rhombus;whiteSpace=wrap;html=1;" vertex="1" parent="WIyWlLk6GJQsqaUBKTNV-1">
          <mxGeometry x="-40" y="1060" width="160" height="171" as="geometry" />
        </mxCell>
        <mxCell id="vpzqj6q_tbfEYGP_9CFz-26" value="Stop" style="ellipse;whiteSpace=wrap;html=1;" vertex="1" parent="WIyWlLk6GJQsqaUBKTNV-1">
          <mxGeometry x="170" y="1340" width="90" height="50" as="geometry" />
        </mxCell>
        <mxCell id="vpzqj6q_tbfEYGP_9CFz-33" style="edgeStyle=orthogonalEdgeStyle;rounded=0;orthogonalLoop=1;jettySize=auto;html=1;" edge="1" parent="WIyWlLk6GJQsqaUBKTNV-1" source="vpzqj6q_tbfEYGP_9CFz-29" target="vpzqj6q_tbfEYGP_9CFz-32">
          <mxGeometry relative="1" as="geometry">
            <mxPoint x="-190" y="1080" as="targetPoint" />
          </mxGeometry>
        </mxCell>
        <mxCell id="vpzqj6q_tbfEYGP_9CFz-35" value="Yes" style="edgeLabel;html=1;align=center;verticalAlign=middle;resizable=0;points=[];" vertex="1" connectable="0" parent="vpzqj6q_tbfEYGP_9CFz-33">
          <mxGeometry x="-0.3023" y="1" relative="1" as="geometry">
            <mxPoint x="9" y="5" as="offset" />
          </mxGeometry>
        </mxCell>
        <mxCell id="vpzqj6q_tbfEYGP_9CFz-37" style="edgeStyle=orthogonalEdgeStyle;rounded=0;orthogonalLoop=1;jettySize=auto;html=1;entryX=0.5;entryY=1;entryDx=0;entryDy=0;" edge="1" parent="WIyWlLk6GJQsqaUBKTNV-1" source="vpzqj6q_tbfEYGP_9CFz-29" target="vpzqj6q_tbfEYGP_9CFz-36">
          <mxGeometry relative="1" as="geometry" />
        </mxCell>
        <mxCell id="vpzqj6q_tbfEYGP_9CFz-39" value="No" style="edgeLabel;html=1;align=center;verticalAlign=middle;resizable=0;points=[];" vertex="1" connectable="0" parent="vpzqj6q_tbfEYGP_9CFz-37">
          <mxGeometry x="-0.0571" y="-4" relative="1" as="geometry">
            <mxPoint x="6" as="offset" />
          </mxGeometry>
        </mxCell>
        <mxCell id="vpzqj6q_tbfEYGP_9CFz-29" value="Is the current&amp;nbsp;&lt;div&gt;temperature the&amp;nbsp;&lt;/div&gt;&lt;div&gt;final cooling&amp;nbsp;&lt;/div&gt;&lt;div&gt;temperature?&lt;/div&gt;" style="rhombus;whiteSpace=wrap;html=1;" vertex="1" parent="WIyWlLk6GJQsqaUBKTNV-1">
          <mxGeometry x="-260" y="900" width="140" height="140" as="geometry" />
        </mxCell>
        <mxCell id="vpzqj6q_tbfEYGP_9CFz-34" style="edgeStyle=orthogonalEdgeStyle;rounded=0;orthogonalLoop=1;jettySize=auto;html=1;entryX=0;entryY=0.5;entryDx=0;entryDy=0;exitX=0.5;exitY=1;exitDx=0;exitDy=0;" edge="1" parent="WIyWlLk6GJQsqaUBKTNV-1" source="vpzqj6q_tbfEYGP_9CFz-32" target="vpzqj6q_tbfEYGP_9CFz-26">
          <mxGeometry relative="1" as="geometry">
            <Array as="points">
              <mxPoint x="-190" y="1365" />
            </Array>
          </mxGeometry>
        </mxCell>
        <mxCell id="vpzqj6q_tbfEYGP_9CFz-32" value="Return the current accepted solution" style="rounded=1;whiteSpace=wrap;html=1;" vertex="1" parent="WIyWlLk6GJQsqaUBKTNV-1">
          <mxGeometry x="-250" y="1169" width="120" height="50" as="geometry" />
        </mxCell>
        <mxCell id="vpzqj6q_tbfEYGP_9CFz-38" style="edgeStyle=orthogonalEdgeStyle;rounded=0;orthogonalLoop=1;jettySize=auto;html=1;entryX=0;entryY=0.5;entryDx=0;entryDy=0;exitX=0.5;exitY=0;exitDx=0;exitDy=0;" edge="1" parent="WIyWlLk6GJQsqaUBKTNV-1" source="vpzqj6q_tbfEYGP_9CFz-36" target="WIyWlLk6GJQsqaUBKTNV-12">
          <mxGeometry relative="1" as="geometry">
            <Array as="points">
              <mxPoint x="-190" y="445" />
            </Array>
          </mxGeometry>
        </mxCell>
        <mxCell id="vpzqj6q_tbfEYGP_9CFz-36" value="Reduce the temperature" style="rounded=1;whiteSpace=wrap;html=1;" vertex="1" parent="WIyWlLk6GJQsqaUBKTNV-1">
          <mxGeometry x="-245" y="720" width="110" height="40" as="geometry" />
        </mxCell>
      </root>
    </mxGraphModel>
  </diagram>
</mxfile>
